<?xml version="1.0" encoding="UTF-8"?>
<svg xmlns="http://www.w3.org/2000/svg" viewBox="0.00 0.00 541.02 169.76" width="541.02" height="169.76" role="img" aria-label="Rafeeq رفيق"><g transform="translate(0.00 0.00) scale(1.41468)"><g transform="rotate(0 60 60)"><ellipse cx="60" cy="32" rx="8" ry="22" transform="rotate(18 60 50)" fill="none" stroke="#FFFFFF" stroke-width="3.5" opacity="1"/></g><g transform="rotate(30 60 60)"><ellipse cx="60" cy="32" rx="8" ry="22" transform="rotate(18 60 50)" fill="none" stroke="#FFFFFF" stroke-width="3.5" opacity="0.6"/></g><g transform="rotate(60 60 60)"><ellipse cx="60" cy="32" rx="8" ry="22" transform="rotate(18 60 50)" fill="none" stroke="#FFFFFF" stroke-width="3.5" opacity="1"/></g><g transform="rotate(90 60 60)"><ellipse cx="60" cy="32" rx="8" ry="22" transform="rotate(18 60 50)" fill="none" stroke="#FFFFFF" stroke-width="3.5" opacity="0.6"/></g><g transform="rotate(120 60 60)"><ellipse cx="60" cy="32" rx="8" ry="22" transform="rotate(18 60 50)" fill="none" stroke="#FFFFFF" stroke-width="3.5" opacity="1"/></g><g transform="rotate(150 60 60)"><ellipse cx="60" cy="32" rx="8" ry="22" transform="rotate(18 60 50)" fill="none" stroke="#FFFFFF" stroke-width="3.5" opacity="0.6"/></g><g transform="rotate(180 60 60)"><ellipse cx="60" cy="32" rx="8" ry="22" transform="rotate(18 60 50)" fill="none" stroke="#FFFFFF" stroke-width="3.5" opacity="1"/></g><g transform="rotate(210 60 60)"><ellipse cx="60" cy="32" rx="8" ry="22" transform="rotate(18 60 50)" fill="none" stroke="#FFFFFF" stroke-width="3.5" opacity="0.6"/></g><g transform="rotate(240 60 60)"><ellipse cx="60" cy="32" rx="8" ry="22" transform="rotate(18 60 50)" fill="none" stroke="#FFFFFF" stroke-width="3.5" opacity="1"/></g><g transform="rotate(270 60 60)"><ellipse cx="60" cy="32" rx="8" ry="22" transform="rotate(18 60 50)" fill="none" stroke="#FFFFFF" stroke-width="3.5" opacity="0.6"/></g><g transform="rotate(300 60 60)"><ellipse cx="60" cy="32" rx="8" ry="22" transform="rotate(18 60 50)" fill="none" stroke="#FFFFFF" stroke-width="3.5" opacity="1"/></g><g transform="rotate(330 60 60)"><ellipse cx="60" cy="32" rx="8" ry="22" transform="rotate(18 60 50)" fill="none" stroke="#FFFFFF" stroke-width="3.5" opacity="0.6"/></g><circle cx="60" cy="60" r="9" fill="#FFFFFF"/></g><path transform="translate(194.52 81.80)" d="M33.6 0.0V-2.3000000000000003C28.700000000000003 -2.6 26.200000000000003 -4.1000000000000005 26.200000000000003 -6.800000000000001V-35.1C27.400000000000002 -35.1 28.900000000000002 -35.1 30.1 -35.1L54.6 0.0H78.7V-2.3000000000000003C74.0 -3.5 71.0 -6.1000000000000005 68.4 -9.700000000000001L48.900000000000006 -37.6C59.800000000000004 -40.300000000000004 67.5 -45.300000000000004 67.5 -54.300000000000004C67.5 -64.8 56.300000000000004 -70.0 41.400000000000006 -70.0H2.4000000000000004V-67.8C7.300000000000001 -67.5 9.8 -66.0 9.8 -63.300000000000004V-6.800000000000001C9.8 -4.0 7.300000000000001 -2.6 2.4000000000000004 -2.3000000000000003V0.0ZM26.200000000000003 -65.2C26.200000000000003 -66.4 26.700000000000003 -67.8 28.8 -67.8H34.7C46.2 -67.8 50.300000000000004 -61.300000000000004 50.300000000000004 -54.2C50.300000000000004 -43.800000000000004 40.5 -37.4 29.6 -37.4H26.200000000000003ZM97.4 1.2000000000000002C102.5 1.2000000000000002 106.0 -0.4 109.7 -3.3000000000000003L115.0 -11.3V-9.4C115.0 -2.7 119.10000000000001 1.2000000000000002 124.9 1.2000000000000002C131.7 1.2000000000000002 135.9 -4.0 138.4 -7.0L137.10000000000002 -8.200000000000001C136.0 -7.2 134.7 -6.1000000000000005 132.7 -6.1000000000000005C130.9 -6.1000000000000005 129.3 -7.0 129.3 -10.100000000000001V-35.5C129.3 -50.300000000000004 118.0 -53.2 107.60000000000001 -53.2C100.30000000000001 -53.2 93.4 -51.7 87.5 -49.2L88.5 -33.2H90.4C94.4 -45.400000000000006 99.7 -51.0 106.60000000000001 -51.0C112.30000000000001 -51.0 115.0 -47.300000000000004 115.0 -38.0V-32.800000000000004L110.30000000000001 -32.4C93.0 -31.0 80.60000000000001 -25.0 80.60000000000001 -13.200000000000001C80.60000000000001 -4.2 87.7 1.2000000000000002 97.4 1.2000000000000002ZM103.80000000000001 -8.1C98.9 -8.1 95.7 -11.5 95.7 -17.400000000000002C95.7 -26.0 102.30000000000001 -29.5 111.30000000000001 -30.3L115.0 -30.5V-14.600000000000001C111.9 -9.9 107.5 -8.1 103.80000000000001 -8.1ZM170.1 0.0V-2.3000000000000003C165.7 -2.6 163.1 -4.1000000000000005 163.1 -6.800000000000001V-49.5H173.7V-52.1H163.1V-61.1C163.1 -67.60000000000001 164.3 -74.7 169.4 -74.7C175.0 -74.7 177.2 -66.0 177.2 -58.0L179.0 -57.7L183.0 -72.2C180.6 -73.8 176.3 -77.0 168.2 -77.0C157.0 -77.0 148.1 -71.0 148.1 -57.300000000000004V-52.1H140.6L140.1 -49.5H148.1V-6.800000000000001C148.1 -4.1000000000000005 145.5 -2.6 141.1 -2.3000000000000003V0.0ZM203.4 1.2000000000000002C215.1 1.2000000000000002 224.1 -5.9 227.7 -17.7L226.2 -18.5C222.6 -10.9 216.1 -8.9 210.6 -8.9C197.0 -8.9 194.6 -19.5 194.6 -31.0H228.7C228.7 -42.6 221.4 -53.300000000000004 205.9 -53.300000000000004C190.3 -53.300000000000004 179.0 -41.2 179.0 -24.8C179.0 -9.4 188.9 1.2000000000000002 203.4 1.2000000000000002ZM194.6 -33.2C195.2 -43.1 197.7 -51.0 204.8 -51.0C212.2 -51.0 213.8 -42.7 214.1 -33.2ZM257.0 1.2000000000000002C268.70000000000005 1.2000000000000002 277.70000000000005 -5.9 281.3 -17.7L279.8 -18.5C276.20000000000005 -10.9 269.70000000000005 -8.9 264.20000000000005 -8.9C250.60000000000002 -8.9 248.20000000000002 -19.5 248.20000000000002 -31.0H282.3C282.3 -42.6 275.0 -53.300000000000004 259.5 -53.300000000000004C243.90000000000003 -53.300000000000004 232.60000000000002 -41.2 232.60000000000002 -24.8C232.60000000000002 -9.4 242.50000000000003 1.2000000000000002 257.0 1.2000000000000002ZM248.20000000000002 -33.2C248.8 -43.1 251.3 -51.0 258.40000000000003 -51.0C265.8 -51.0 267.40000000000003 -42.7 267.70000000000005 -33.2ZM346.5 22.6V20.400000000000002C342.1 20.1 339.5 18.7 339.5 16.0V-53.300000000000004H337.7L326.9 -47.7C322.8 -51.0 317.8 -53.300000000000004 309.9 -53.300000000000004C294.4 -53.300000000000004 285.59999999999997 -42.0 285.59999999999997 -25.3C285.59999999999997 -9.9 293.59999999999997 1.2000000000000002 306.4 1.2000000000000002C309.09999999999997 1.2000000000000002 313.3 0.5 316.59999999999997 -1.7000000000000002L324.5 -10.9V14.100000000000001C324.5 17.900000000000002 321.9 19.900000000000002 317.5 20.400000000000002V22.6ZM313.0 -8.5C306.0 -8.5 301.59999999999997 -14.0 301.59999999999997 -27.3C301.59999999999997 -39.7 305.3 -48.300000000000004 315.7 -48.300000000000004C319.3 -48.300000000000004 322.0 -47.6 324.5 -45.400000000000006V-13.8C321.09999999999997 -11.200000000000001 317.5 -8.5 313.0 -8.5Z" fill="#FFFFFF"/><path transform="translate(196.54 153.20)" d="M27.174000000000003 0.0C28.518 0.0 29.232000000000003 -0.7140000000000001 29.232000000000003 -2.0580000000000003V-6.888000000000001H26.040000000000003C25.116000000000003 -14.784 21.42 -17.388 18.144000000000002 -17.388C13.398000000000001 -17.388 10.794 -12.054 10.794 -7.434C10.794 -3.402 12.264000000000001 0.0 16.464000000000002 0.0H25.326C25.326 0.5880000000000001 25.284000000000002 1.1760000000000002 25.242 1.806C22.470000000000002 3.4440000000000004 17.052 4.998 12.180000000000001 4.998C6.132000000000001 4.998 1.9740000000000002 2.73 1.9740000000000002 -2.436C1.9740000000000002 -3.9480000000000004 2.3520000000000003 -5.922000000000001 2.982 -8.442L2.2680000000000002 -8.484C1.3860000000000001 -5.880000000000001 0.378 -2.0580000000000003 0.378 1.4700000000000002C0.378 9.156 5.1240000000000006 11.760000000000002 11.004000000000001 11.760000000000002C15.750000000000002 11.760000000000002 20.916 10.038 24.108 7.854C25.200000000000003 5.292000000000001 25.872 2.982 26.124000000000002 0.0ZM24.318 -23.898000000000003C24.360000000000003 -23.898000000000003 24.360000000000003 -24.402 24.318 -24.444000000000003L21.042 -27.720000000000002L18.102 -24.78L15.162 -27.720000000000002L11.844000000000001 -24.402V-23.94L15.162 -20.580000000000002L18.102 -23.520000000000003L21.042 -20.580000000000002ZM11.55 -8.904C11.55 -10.038 13.524000000000001 -11.046000000000001 16.086000000000002 -11.046000000000001C18.858 -11.046000000000001 21.84 -9.870000000000001 23.646 -6.930000000000001H16.422C13.734 -6.930000000000001 11.55 -7.476000000000001 11.55 -8.904ZM28.938000000000002 -6.888000000000001C27.594 -6.888000000000001 26.922 -6.216 26.922 -4.872V0.0C29.022000000000002 0.0 31.584 -0.546 33.222 -1.6380000000000001L34.482 -6.384C34.398 -1.4700000000000002 37.254000000000005 0.0 40.614000000000004 0.0C41.958 0.0 42.672000000000004 -0.7140000000000001 42.672000000000004 -2.0580000000000003V-6.888000000000001C39.354 -6.888000000000001 36.834 -7.896000000000001 36.666 -11.214L36.54 -13.944H35.784L34.986000000000004 -10.164000000000001C34.734 -9.156 34.608000000000004 -8.232000000000001 34.524 -7.392C33.306 -7.182 30.87 -6.888000000000001 28.938000000000002 -6.888000000000001ZM39.396 7.182C39.438 7.182 39.438 6.678000000000001 39.396 6.636L36.120000000000005 3.3600000000000003L33.18 6.300000000000001L30.240000000000002 3.3600000000000003L26.922 6.678000000000001V7.140000000000001L30.240000000000002 10.5L33.18 7.5600000000000005L36.120000000000005 10.5ZM42.714000000000006 -6.888000000000001C41.328 -6.888000000000001 40.614000000000004 -6.174 40.614000000000004 -4.83V0.0H41.87400000000001C47.08200000000001 0.0 52.290000000000006 -0.924 56.07000000000001 -2.73L57.03600000000001 -6.3420000000000005C60.438 -19.152 55.02000000000001 -25.200000000000003 50.232000000000006 -25.200000000000003C46.53600000000001 -25.200000000000003 43.00800000000001 -21.588 43.00800000000001 -15.204C43.00800000000001 -12.054 44.940000000000005 -9.156 48.76200000000001 -9.156C51.912000000000006 -9.156 54.81000000000001 -11.172 56.406000000000006 -12.768C56.86800000000001 -11.256 56.99400000000001 -9.618 56.82600000000001 -7.854C54.39000000000001 -7.308000000000001 49.434000000000005 -6.888000000000001 44.688 -6.888000000000001ZM53.550000000000004 -32.508C53.592000000000006 -32.550000000000004 53.592000000000006 -33.096000000000004 53.550000000000004 -33.138000000000005L49.89600000000001 -36.792L46.2 -33.096000000000004V-32.550000000000004L49.89600000000001 -28.854000000000003ZM49.14000000000001 -14.49C46.074000000000005 -14.49 43.68000000000001 -15.246 43.68000000000001 -16.59C43.68000000000001 -17.976000000000003 46.15800000000001 -18.900000000000002 48.59400000000001 -18.900000000000002C51.57600000000001 -18.900000000000002 53.88600000000001 -17.472 55.272000000000006 -15.288C53.67600000000001 -14.868 51.36600000000001 -14.49 49.14000000000001 -14.49ZM65.268 -17.724H64.554L62.076 -11.844000000000001C64.218 -9.450000000000001 66.864 -6.594 68.166 -4.032C66.528 0.882 60.942 3.99 53.508 5.04V5.7540000000000004L62.076 9.66C66.024 5.166 69.006 -1.1760000000000002 69.006 -6.930000000000001C69.006 -7.518000000000001 68.964 -8.148 68.88 -8.736L70.056 -11.424000000000001Z" fill="#FFFFFF"/></svg>